<svg width="701" height="487" viewBox="0 0 701 487" fill="none" xmlns="http://www.w3.org/2000/svg">
<g clip-path="url(#clip0_17_75)">
<path d="M359.611 393.821L114.552 465.628C106.239 468.052 97.4204 466.625 90.031 461.66C82.6415 456.696 77.2845 448.598 75.135 439.145L1.02674 111.657C-1.10377 102.198 0.150032 92.1639 4.51309 83.7556C8.87615 75.3472 15.9922 69.2514 24.3 66.8056L252.288 0.00106812L310.638 29.7253L382.885 348.968C385.016 358.427 383.762 368.462 379.399 376.87C375.036 385.279 367.919 391.375 359.611 393.821Z" fill="#F2F2F2"/>
<path d="M26.6193 77.0733C20.7031 78.815 15.6356 83.1558 12.5285 89.1435C9.42136 95.1312 8.52844 102.277 10.0455 109.013L84.1585 436.502C85.6891 443.234 89.5039 449 94.766 452.536C100.028 456.071 106.308 457.087 112.228 455.361L357.288 383.555C363.204 381.813 368.271 377.473 371.378 371.485C374.485 365.497 375.378 358.351 373.861 351.616L302.734 37.3167L251.452 11.1932L26.6193 77.0733Z" fill="white"/>
<path d="M310.016 31.4177L272.089 42.531C269.32 43.3421 266.382 42.8686 263.92 41.2144C261.458 39.5603 259.675 36.8611 258.962 33.7106L251.748 1.83608C251.717 1.69661 251.721 1.5499 251.759 1.41274C251.798 1.27557 251.869 1.1535 251.966 1.06049C252.062 0.967476 252.18 0.907297 252.305 0.886815C252.43 0.866332 252.558 0.886374 252.674 0.944667L310.121 29.9746C310.249 30.0393 310.356 30.1476 310.427 30.2846C310.499 30.4215 310.531 30.5803 310.519 30.7389C310.507 30.8974 310.453 31.048 310.362 31.1696C310.272 31.2912 310.151 31.3779 310.016 31.4177Z" fill="#F2F2F2"/>
<path d="M290.063 311.083L178.491 343.778C177.109 344.173 175.647 343.931 174.422 343.103C173.198 342.275 172.311 340.929 171.956 339.359C171.601 337.79 171.806 336.124 172.527 334.726C173.248 333.329 174.425 332.312 175.803 331.899L287.375 299.203C288.062 298.998 288.778 298.948 289.482 299.058C290.186 299.168 290.863 299.435 291.476 299.844C292.089 300.253 292.624 300.796 293.052 301.442C293.48 302.087 293.791 302.822 293.968 303.605C294.145 304.388 294.185 305.203 294.084 306.003C293.984 306.803 293.745 307.573 293.382 308.268C293.019 308.963 292.539 309.569 291.97 310.052C291.4 310.535 290.752 310.885 290.063 311.083Z" fill="#CCCCCC"/>
<path d="M316.13 324.819L183.026 363.822C182.339 364.027 181.623 364.077 180.92 363.967C180.216 363.857 179.538 363.59 178.925 363.181C178.313 362.772 177.777 362.229 177.349 361.584C176.922 360.938 176.61 360.203 176.433 359.42C176.256 358.637 176.216 357.822 176.317 357.022C176.418 356.222 176.656 355.452 177.019 354.757C177.382 354.062 177.862 353.456 178.432 352.973C179.001 352.49 179.649 352.14 180.338 351.942L313.442 312.94C314.823 312.545 316.286 312.787 317.51 313.615C318.735 314.443 319.621 315.789 319.977 317.359C320.332 318.928 320.127 320.594 319.406 321.992C318.685 323.39 317.507 324.406 316.13 324.819Z" fill="#CCCCCC"/>
<path d="M132.953 383.151C143.475 383.151 152.004 373.446 152.004 361.473C152.004 349.501 143.475 339.795 132.953 339.795C122.431 339.795 113.902 349.501 113.902 361.473C113.902 373.446 122.431 383.151 132.953 383.151Z" fill="#00A6A8"/>
<path d="M278.199 254.351L130.019 297.754C125.736 299.003 121.194 298.267 117.387 295.709C113.581 293.151 110.821 288.979 109.715 284.109L78.6626 146.842C77.5664 141.969 78.2132 136.801 80.4612 132.471C82.7092 128.14 86.3747 125.001 90.6539 123.742L238.833 80.3387C243.116 79.09 247.658 79.8254 251.465 82.3835C255.271 84.9415 258.031 89.1133 259.138 93.9835L290.19 231.251C291.287 236.123 290.64 241.291 288.392 245.622C286.144 249.952 282.478 253.091 278.199 254.351Z" fill="white"/>
<path d="M278.199 254.351L130.019 297.754C125.736 299.003 121.194 298.267 117.387 295.709C113.581 293.151 110.821 288.979 109.715 284.109L78.6626 146.842C77.5664 141.969 78.2132 136.801 80.4612 132.471C82.7092 128.14 86.3747 125.001 90.6539 123.742L238.833 80.3387C243.116 79.09 247.658 79.8254 251.465 82.3835C255.271 84.9415 258.031 89.1133 259.138 93.9835L290.19 231.251C291.287 236.123 290.64 241.291 288.392 245.622C286.144 249.952 282.478 253.091 278.199 254.351ZM91.1425 125.9C87.3668 127.012 84.1329 129.783 82.1503 133.605C80.1676 137.426 79.5979 141.987 80.5663 146.286L111.619 283.553C112.597 287.85 115.032 291.529 118.39 293.785C121.749 296.042 125.757 296.69 129.535 295.588L277.711 252.189C281.487 251.077 284.721 248.306 286.704 244.484C288.686 240.662 289.256 236.102 288.288 231.803L257.238 94.5352C256.26 90.2388 253.825 86.5591 250.466 84.303C247.108 82.0469 243.1 81.3987 239.322 82.5006L91.1425 125.9Z" fill="#E6E6E6"/>
<path d="M231.316 126.49L156.533 148.395C155.88 148.602 155.181 148.52 154.579 148.164C153.976 147.808 153.515 147.205 153.288 146.478C153.183 146.097 153.147 145.696 153.182 145.299C153.217 144.902 153.323 144.518 153.493 144.169C153.663 143.82 153.894 143.514 154.171 143.271C154.448 143.027 154.767 142.849 155.106 142.75L231.231 120.452C234.307 122.225 233.497 125.852 231.317 126.491L231.316 126.49Z" fill="#F2F2F2"/>
<path d="M234.69 141.411L159.907 163.316C159.254 163.524 158.555 163.442 157.953 163.086C157.351 162.73 156.889 162.127 156.663 161.399C156.557 161.019 156.521 160.618 156.556 160.221C156.591 159.824 156.697 159.44 156.867 159.091C157.037 158.742 157.268 158.436 157.545 158.192C157.822 157.948 158.141 157.771 158.48 157.672L234.605 135.374C237.681 137.147 236.871 140.773 234.691 141.412L234.69 141.411Z" fill="#F2F2F2"/>
<path d="M145.664 176.554L122.841 183.237C122.472 183.345 122.088 183.37 121.71 183.309C121.333 183.248 120.97 183.104 120.642 182.883C120.313 182.662 120.027 182.37 119.798 182.024C119.569 181.677 119.402 181.282 119.307 180.862L112.374 150.222C112.278 149.802 112.257 149.365 112.31 148.935C112.364 148.506 112.491 148.093 112.685 147.719C112.879 147.346 113.135 147.02 113.44 146.759C113.745 146.498 114.092 146.309 114.461 146.201L137.284 139.516C138.029 139.298 138.82 139.427 139.482 139.872C140.145 140.317 140.625 141.043 140.818 141.891L147.751 172.538C147.847 172.958 147.868 173.395 147.815 173.825C147.761 174.254 147.634 174.668 147.44 175.041C147.246 175.414 146.99 175.741 146.685 176.001C146.38 176.262 146.033 176.452 145.664 176.56V176.554Z" fill="#00A6A8"/>
<path d="M241.388 172.042L127.254 205.472C126.6 205.68 125.902 205.598 125.3 205.242C124.697 204.886 124.236 204.283 124.009 203.555C123.904 203.175 123.867 202.774 123.903 202.377C123.938 201.98 124.044 201.596 124.214 201.247C124.384 200.898 124.614 200.592 124.892 200.348C125.169 200.104 125.487 199.927 125.827 199.828L241.304 166.003C244.38 167.777 243.569 171.403 241.388 172.042Z" fill="#F2F2F2"/>
<path d="M244.768 186.971L130.632 220.403C129.978 220.61 129.28 220.528 128.677 220.172C128.075 219.816 127.614 219.214 127.387 218.486C127.281 218.105 127.245 217.704 127.28 217.307C127.315 216.911 127.421 216.526 127.591 216.177C127.761 215.828 127.992 215.523 128.27 215.279C128.547 215.035 128.865 214.858 129.205 214.758L244.682 180.934C247.757 182.707 246.948 186.333 244.767 186.972L244.768 186.971Z" fill="#F2F2F2"/>
<path d="M248.141 201.894L134.007 235.324C133.353 235.532 132.655 235.45 132.052 235.094C131.45 234.738 130.989 234.135 130.762 233.407C130.657 233.027 130.62 232.626 130.655 232.229C130.691 231.832 130.796 231.448 130.966 231.099C131.137 230.75 131.367 230.444 131.645 230.2C131.922 229.956 132.24 229.779 132.58 229.68L248.056 195.855C251.131 197.629 250.322 201.255 248.141 201.894Z" fill="#F2F2F2"/>
<path d="M251.52 216.823L137.385 250.254C136.731 250.461 136.033 250.379 135.43 250.023C134.828 249.667 134.367 249.065 134.14 248.337C134.034 247.956 133.998 247.555 134.033 247.159C134.068 246.762 134.174 246.377 134.344 246.028C134.514 245.679 134.745 245.374 135.023 245.13C135.3 244.886 135.618 244.709 135.958 244.609L251.435 210.785C254.509 212.558 253.701 216.184 251.52 216.823Z" fill="#F2F2F2"/>
<path d="M254.895 231.745L140.761 265.176C140.107 265.383 139.409 265.301 138.806 264.945C138.204 264.589 137.743 263.986 137.516 263.258C137.41 262.878 137.374 262.477 137.409 262.08C137.444 261.683 137.55 261.299 137.72 260.95C137.89 260.601 138.121 260.295 138.398 260.051C138.676 259.807 138.994 259.63 139.333 259.531L254.811 225.706C257.885 227.48 257.076 231.106 254.895 231.745Z" fill="#F2F2F2"/>
<path d="M134.359 369.072C133.944 369.194 133.506 369.16 133.109 368.974L133.085 368.962L127.895 366.459C127.655 366.342 127.437 366.173 127.254 365.961C127.071 365.749 126.926 365.497 126.829 365.222C126.731 364.946 126.682 364.651 126.684 364.354C126.687 364.056 126.741 363.762 126.843 363.489C126.945 363.215 127.094 362.967 127.28 362.759C127.467 362.551 127.687 362.386 127.93 362.275C128.172 362.164 128.431 362.108 128.693 362.111C128.954 362.113 129.212 362.175 129.453 362.291L132.816 363.918L137.222 352.123C137.428 351.57 137.819 351.134 138.308 350.909C138.798 350.685 139.345 350.691 139.831 350.925L139.804 351.002L139.831 350.924C140.317 351.16 140.7 351.605 140.897 352.161C141.095 352.718 141.09 353.341 140.883 353.894L135.699 367.763C135.579 368.083 135.396 368.367 135.163 368.593C134.931 368.819 134.656 368.981 134.36 369.067L134.359 369.072Z" fill="white"/>
<path d="M602.617 479.786L352.041 423.364C343.545 421.44 336.023 415.81 331.127 407.709C326.23 399.609 324.359 389.7 325.923 380.156L380.391 49.7222C381.974 40.183 386.861 31.7965 393.982 26.4027C401.103 21.0089 409.875 19.0482 418.374 20.9509L651.495 73.4426L693.698 128.897L640.6 451.012C639.019 460.552 634.131 468.939 627.01 474.334C619.889 479.728 611.116 481.689 602.617 479.786Z" fill="#E6E6E6"/>
<path d="M416.662 31.3049C410.609 29.9501 404.362 31.3463 399.291 35.1874C394.22 39.0286 390.739 45.0008 389.612 51.794L335.14 382.237C334.027 389.034 335.36 396.09 338.847 401.858C342.334 407.626 347.69 411.635 353.741 413.005L604.33 469.429C610.383 470.784 616.63 469.388 621.701 465.547C626.772 461.705 630.253 455.733 631.38 448.94L683.657 131.808L646.567 83.0716L416.662 31.3049Z" fill="white"/>
<path d="M602.739 171.94L489.555 146.688C488.15 146.375 486.907 145.453 486.098 144.127C485.288 142.801 484.98 141.178 485.24 139.615C485.5 138.053 486.307 136.679 487.484 135.796C488.661 134.913 490.111 134.592 491.515 134.906L604.702 160.158C606.106 160.472 607.35 161.393 608.159 162.719C608.968 164.045 609.277 165.668 609.017 167.231C608.757 168.793 607.95 170.167 606.773 171.05C605.596 171.934 604.146 172.254 602.742 171.94L602.739 171.94Z" fill="#00A6A8"/>
<path d="M621.094 197.089L486.083 166.995C484.679 166.682 483.435 165.762 482.626 164.437C481.817 163.112 481.508 161.49 481.768 159.93C482.028 158.369 482.835 156.996 484.012 156.114C485.189 155.232 486.639 154.912 488.043 155.225L623.054 185.319C624.458 185.632 625.702 186.552 626.511 187.877C627.32 189.202 627.629 190.823 627.369 192.384C627.109 193.945 626.302 195.317 625.125 196.2C623.948 197.082 622.498 197.402 621.094 197.089Z" fill="#00A6A8"/>
<path d="M589.145 251.217L475.964 225.965C474.559 225.652 473.109 225.972 471.933 226.855C470.756 227.738 469.949 229.112 469.689 230.675C469.429 232.237 469.737 233.86 470.547 235.186C471.356 236.512 472.599 237.433 474.004 237.746L587.185 262.998C588.58 263.288 590.014 262.955 591.175 262.071C592.337 261.186 593.133 259.822 593.39 258.273C593.648 256.724 593.347 255.115 592.552 253.794C591.758 252.474 590.534 251.548 589.145 251.217Z" fill="#CCCCCC"/>
<path d="M607.501 276.38L472.491 246.286C471.792 246.12 471.072 246.109 470.373 246.255C469.674 246.402 469.01 246.701 468.42 247.138C467.83 247.574 467.325 248.138 466.935 248.796C466.544 249.455 466.277 250.196 466.147 250.975C466.017 251.754 466.028 252.557 466.179 253.336C466.329 254.116 466.617 254.856 467.025 255.515C467.433 256.174 467.953 256.737 468.555 257.173C469.157 257.61 469.829 257.909 470.531 258.055L605.54 288.148C606.239 288.315 606.959 288.326 607.658 288.179C608.357 288.033 609.021 287.733 609.611 287.297C610.201 286.861 610.706 286.297 611.096 285.638C611.487 284.98 611.754 284.239 611.884 283.46C612.014 282.68 612.003 281.878 611.852 281.098C611.702 280.319 611.414 279.579 611.006 278.92C610.598 278.261 610.078 277.697 609.476 277.261C608.874 276.825 608.203 276.526 607.501 276.38Z" fill="#CCCCCC"/>
<path d="M571.627 354.063L458.443 328.812C457.039 328.498 455.795 327.577 454.986 326.251C454.177 324.924 453.868 323.301 454.128 321.739C454.388 320.177 455.195 318.803 456.372 317.919C457.549 317.036 458.999 316.716 460.404 317.029L573.59 342.282C574.995 342.595 576.238 343.516 577.048 344.843C577.857 346.169 578.165 347.792 577.905 349.354C577.646 350.917 576.838 352.291 575.662 353.174C574.485 354.057 573.035 354.377 571.63 354.064L571.627 354.063Z" fill="#CCCCCC"/>
<path d="M589.983 379.211L454.972 349.117C453.568 348.804 452.324 347.884 451.515 346.559C450.706 345.234 450.397 343.613 450.657 342.052C450.917 340.491 451.724 339.119 452.901 338.236C454.078 337.354 455.528 337.034 456.932 337.347L591.943 367.441C593.347 367.754 594.591 368.674 595.4 369.999C596.209 371.324 596.518 372.946 596.258 374.506C595.998 376.067 595.191 377.44 594.014 378.322C592.837 379.204 591.387 379.524 589.983 379.211Z" fill="#CCCCCC"/>
<path d="M438.259 161.83C448.668 164.175 458.668 156.597 460.595 144.905C462.522 133.212 455.645 121.833 445.236 119.488C434.827 117.144 424.826 124.721 422.9 136.414C420.973 148.106 427.849 159.485 438.259 161.83Z" fill="#00A6A8"/>
<path d="M438.553 148.31C438.129 148.215 437.742 147.968 437.45 147.607L437.432 147.584L433.633 142.782C433.285 142.331 433.108 141.747 433.139 141.156C433.169 140.565 433.405 140.014 433.796 139.624C434.187 139.234 434.701 139.035 435.226 139.071C435.752 139.106 436.247 139.373 436.604 139.814L439.065 142.93L447.473 134.527C447.668 134.332 447.896 134.183 448.144 134.089C448.391 133.994 448.654 133.955 448.916 133.975C449.178 133.995 449.435 134.072 449.672 134.204C449.909 134.335 450.122 134.517 450.298 134.74L450.246 134.794L450.3 134.738C450.655 135.188 450.838 135.776 450.811 136.372C450.783 136.968 450.547 137.524 450.153 137.918L440.26 147.798C440.031 148.025 439.758 148.189 439.463 148.278C439.167 148.366 438.856 148.376 438.554 148.307L438.553 148.31Z" fill="white"/>
<path d="M446.962 236.388C446.505 239.169 445.564 241.813 444.195 244.169C442.825 246.525 441.052 248.547 438.978 250.119C436.904 251.692 434.569 252.784 432.107 253.333C429.645 253.883 427.104 253.879 424.628 253.322C424.466 253.289 424.305 253.245 424.147 253.191C420.458 252.249 417.082 250.107 414.441 247.033C411.8 243.959 410.011 240.089 409.297 235.907C408.584 231.726 408.978 227.418 410.43 223.524C411.883 219.63 414.329 216.322 417.463 214.014C420.597 211.706 424.279 210.501 428.049 210.549C431.819 210.597 435.509 211.897 438.658 214.285C441.806 216.673 444.274 220.044 445.751 223.975C447.228 227.907 447.649 232.225 446.962 236.388Z" fill="#00A6A8"/>
<path d="M407.148 343.952C417.557 346.297 427.557 338.719 429.484 327.027C431.411 315.335 424.534 303.955 414.125 301.611C403.715 299.266 393.715 306.844 391.788 318.536C389.862 330.228 396.738 341.608 407.148 343.952Z" fill="#00A6A8"/>
<path d="M692.514 128.462L653.821 119.744C650.997 119.108 648.495 117.236 646.868 114.542C645.24 111.848 644.619 108.551 645.142 105.377L650.432 73.267C650.455 73.1265 650.513 72.9967 650.599 72.8927C650.685 72.7886 650.796 72.7145 650.919 72.6787C651.041 72.6429 651.171 72.6469 651.293 72.6904C651.415 72.7338 651.524 72.8148 651.607 72.9242L693.148 127.218C693.24 127.339 693.297 127.489 693.311 127.647C693.325 127.804 693.295 127.962 693.225 128.099C693.156 128.235 693.05 128.343 692.923 128.408C692.795 128.472 692.653 128.49 692.514 128.459L692.514 128.462Z" fill="#CCCCCC"/>
<path d="M464.319 451.512C463.135 453.72 461.229 455.303 459.019 455.912C456.81 456.522 454.479 456.107 452.538 454.76L352.529 385.347C350.588 384 349.197 381.831 348.662 379.317C348.127 376.803 348.491 374.15 349.675 371.942C350.859 369.733 352.765 368.151 354.974 367.541C357.184 366.932 359.515 367.347 361.456 368.694L461.464 438.107C463.405 439.454 464.795 441.623 465.331 444.137C465.866 446.651 465.502 449.304 464.319 451.512Z" fill="#3F3D56"/>
<path d="M364.31 382.105C357.248 395.28 346.911 405.776 334.606 412.266C322.302 418.756 308.582 420.949 295.183 418.566C281.783 416.184 269.305 409.334 259.327 398.883C249.348 388.431 242.318 374.847 239.124 359.849C235.93 344.851 236.717 329.111 241.384 314.622C246.052 300.132 254.39 287.543 265.345 278.445C276.3 269.348 289.38 264.152 302.931 263.513C316.481 262.875 329.894 266.823 341.473 274.859C349.161 280.194 355.85 287.2 361.159 295.478C366.467 303.755 370.291 313.141 372.412 323.1C374.532 333.058 374.908 343.395 373.518 353.519C372.128 363.643 368.999 373.356 364.31 382.105ZM261.863 310.994C256.567 320.876 253.964 332.322 254.385 343.887C254.806 355.451 258.231 366.614 264.227 375.964C270.223 385.313 278.521 392.429 288.071 396.413C297.622 400.396 307.996 401.067 317.881 398.341C327.767 395.616 336.72 389.616 343.609 381.1C350.498 372.584 355.013 361.935 356.583 350.499C358.153 339.063 356.708 327.355 352.43 316.854C348.152 306.353 341.233 297.531 332.549 291.505C320.905 283.423 306.915 280.936 293.659 284.591C280.403 288.246 268.965 297.744 261.863 310.994Z" fill="#3F3D56"/>
<path d="M287.636 398.061C315.498 408.978 345.862 392.127 355.456 360.423C365.049 328.719 350.24 294.168 322.378 283.251C294.516 272.335 264.152 289.186 254.558 320.89C244.965 352.594 259.774 387.145 287.636 398.061Z" fill="#00A6A8"/>
</g>
<defs>
<clipPath id="clip0_17_75">
<rect width="701" height="487" fill="white"/>
</clipPath>
</defs>
</svg>
