<svg width="64" height="64" viewBox="0 0 64 64" fill="none" xmlns="http://www.w3.org/2000/svg">
<path d="M30.4533 40.4533L46 56C47.3333 57.2907 49.1206 58.0056 50.9762 57.9906C52.8319 57.9755 54.6073 57.2317 55.9195 55.9195C57.2317 54.6073 57.9755 52.8319 57.9906 50.9762C58.0056 49.1206 57.2907 47.3333 56 46L40.328 30.328M30.4533 40.4533L37.1093 32.3733C37.9547 31.3493 39.0827 30.704 40.3307 30.3307M30.4533 40.4533L18.04 55.528C17.4384 56.2614 16.6899 56.8606 15.8427 57.2872C14.9954 57.7138 14.0683 57.9583 13.1209 58.0049C12.1735 58.0516 11.2268 57.8993 10.3418 57.558C9.45677 57.2166 8.65304 56.6938 7.98231 56.023C7.31158 55.3523 6.78872 54.5486 6.44738 53.6636C6.10604 52.7785 5.95378 51.8319 6.00041 50.8845C6.04704 49.937 6.29152 49.0099 6.71812 48.1627C7.14472 47.3155 7.74398 46.567 8.47733 45.9653L26.7093 30.952M40.3307 30.3307C41.7973 29.8933 43.432 29.8293 44.9787 29.9573C47.0635 30.1364 49.159 29.7671 51.0571 28.8862C52.9552 28.0053 54.5899 26.6433 55.7991 24.9355C57.0082 23.2277 57.7498 21.2333 57.9502 19.1504C58.1505 17.0675 57.8028 14.9683 56.9413 13.0613L48.2053 21.8C46.7437 21.462 45.4064 20.7204 44.3457 19.6597C43.2849 18.5989 42.5433 17.2616 42.2053 15.8L50.9413 7.064C49.0343 6.20257 46.9352 5.85478 44.8523 6.05516C42.7693 6.25553 40.775 6.99709 39.0672 8.20626C37.3594 9.41543 35.9974 11.0502 35.1165 12.9483C34.2356 14.8463 33.8663 16.9418 34.0453 19.0267C34.288 21.896 33.856 25.064 31.6347 26.8933L31.3627 27.12M26.7093 30.952L15.7573 20H12L6 10L10 6L20 12V15.7573L31.36 27.1173M26.7067 30.9493L31.36 27.1173L26.7067 30.9493ZM49 49L42 42L49 49ZM12.9787 51H13V51.0213H12.9787V51Z" fill="#00A6A8"/>
</svg>
