<svg width="64" height="64" viewBox="0 0 64 64" fill="none" xmlns="http://www.w3.org/2000/svg">
<path d="M8.79732 46.9227C9.94932 50.4747 13.4506 52.7413 17.1866 52.7413H17.3333C17.6761 54.4142 18.5858 55.9174 19.9088 56.997C21.2319 58.0766 22.887 58.6664 24.5946 58.6667C25.8133 58.6667 26.952 58.36 27.96 57.832C28.3807 57.6014 28.7307 57.2606 28.9726 56.8463C29.2145 56.432 29.3392 55.9597 29.3333 55.48V8.07201C29.3387 7.46107 29.1335 6.86692 28.7523 6.38951C28.371 5.9121 27.837 5.58056 27.24 5.45068C25.9021 5.19082 24.516 5.37921 23.296 5.98668C21.312 6.93601 20.1493 9.05601 20.1493 11.2613V11.408C18.6645 11.105 17.1226 11.2646 15.7313 11.8653C14.3401 12.466 13.1665 13.4789 12.369 14.7674C11.5714 16.0559 11.1882 17.558 11.2709 19.0711C11.3537 20.5842 11.8986 22.0356 12.832 23.2293C10.7415 23.5569 8.83698 24.6208 7.46196 26.229C6.08693 27.8373 5.33198 29.8841 5.33331 32C5.33331 35.1413 6.96265 37.896 9.42132 39.4987C8.27465 41.5547 7.89865 44.1547 8.79732 46.9227ZM51.168 23.2293C52.1014 22.0356 52.6462 20.5842 52.729 19.0711C52.8118 17.558 52.4286 16.0559 51.631 14.7674C50.8334 13.4789 49.6599 12.466 48.2686 11.8653C46.8774 11.2646 45.3354 11.105 43.8507 11.408V11.2613C43.8507 9.05868 42.6853 6.93601 40.7013 5.98668C39.4824 5.37903 38.0969 5.19062 36.76 5.45068C36.1632 5.58102 35.6295 5.91268 35.2483 6.38999C34.8671 6.8673 34.6618 7.4612 34.6666 8.07201V55.4773C34.6666 56.4507 35.1786 57.376 36.0426 57.8293C37.0506 58.36 38.1866 58.6667 39.4053 58.6667C41.1133 58.6663 42.7688 58.0761 44.0918 56.996C45.4149 55.9159 46.3244 54.412 46.6666 52.7387H46.816C50.5493 52.7387 54.0533 50.472 55.2053 46.92C56.104 44.152 55.728 41.552 54.5813 39.496C55.8338 38.6868 56.8638 37.5769 57.5773 36.2676C58.2909 34.9583 58.6654 33.4912 58.6666 32C58.668 29.8841 57.913 27.8373 56.538 26.229C55.163 24.6208 53.2584 23.5569 51.168 23.2293Z" fill="#00A6A8"/>
</svg>
