<svg width="32" height="32" viewBox="0 0 32 32" fill="none" xmlns="http://www.w3.org/2000/svg">
<path d="M28.9386 7.05329L24.9426 3.05729C24.819 2.93324 24.6721 2.83485 24.5103 2.76781C24.3485 2.70076 24.1751 2.66637 24 2.66663H7.99996C7.82484 2.66637 7.65139 2.70076 7.48961 2.76781C7.32783 2.83485 7.1809 2.93324 7.05729 3.05729L3.06129 7.05329C2.93608 7.1768 2.83669 7.32399 2.76893 7.48629C2.70117 7.64859 2.6664 7.82275 2.66663 7.99863V25.3333C2.66663 26.0405 2.94758 26.7188 3.44768 27.2189C3.94777 27.719 4.62605 28 5.33329 28H26.6666C27.3739 28 28.0521 27.719 28.5522 27.2189C29.0523 26.7188 29.3333 26.0405 29.3333 25.3333V7.99863C29.3335 7.82275 29.2987 7.64859 29.231 7.48629C29.1632 7.32399 29.0638 7.1768 28.9386 7.05329ZM8.55196 5.33329H23.448L24.7813 6.66663H7.21863L8.55196 5.33329ZM22.6666 17.3333V18.6666H9.33329V13.3333H12V16H20V13.3333H22.6666V17.3333Z" fill="#00A6A8"/>
</svg>
