<svg width="24" height="24" viewBox="0 0 24 24" fill="none" xmlns="http://www.w3.org/2000/svg">
<g clip-path="url(#clip0_99_167)">
<path fill-rule="evenodd" clip-rule="evenodd" d="M5.12738 3.87939L3.966 5.04039L18.9109 19.9856L20.0723 18.8243L5.12738 3.87939Z" fill="#969494"/>
<path d="M6.41964 7.49396L7.51277 8.58709C6.31614 9.60597 5.36327 10.8742 4.74752 11.9838L4.74564 11.9876C6.46052 14.8548 9.18152 17.5646 12.6158 17.1536C13.5428 17.0426 14.4075 16.7257 15.1976 16.2723L16.3043 17.3786C14.7641 18.3671 12.9986 18.8906 11.0858 18.6318C7.63652 18.1653 4.81614 15.3363 3.03827 12.0138C3.87302 10.3342 5.01489 8.72734 6.41964 7.49396ZM8.90589 5.87396C9.87039 5.44421 10.914 5.19146 12.0285 5.17346C12.0904 5.17309 12.825 5.20797 13.158 5.26272C13.3669 5.29722 13.575 5.34034 13.7801 5.39397C17.052 6.24634 19.476 9.01234 21 11.862C20.3606 13.1531 19.5233 14.4131 18.5246 15.4927L17.4645 14.4326C18.2021 13.6376 18.8171 12.7526 19.2908 11.8942C19.2908 11.8942 18.8145 11.1285 18.4534 10.6477C18.2213 10.3387 17.9771 10.0387 17.7206 9.74959C17.5181 9.52159 16.7318 8.74721 16.5446 8.58596C15.2891 7.50634 13.815 6.65921 12.0469 6.67346C11.3621 6.68434 10.7036 6.81934 10.0785 7.04659L8.90589 5.87396Z" fill="#969494"/>
<path fill-rule="evenodd" clip-rule="evenodd" d="M9.39526 10.47L10.2949 11.3693C10.236 11.5481 10.2038 11.7394 10.2038 11.9378C10.2038 12.9398 11.0171 13.7531 12.0191 13.7531C12.2175 13.7531 12.4088 13.7213 12.5876 13.662L13.4873 14.5616C13.053 14.8054 12.552 14.9441 12.0191 14.9441C10.3598 14.9441 9.01276 13.5971 9.01276 11.9378C9.01276 11.4049 9.15188 10.9043 9.39526 10.47ZM11.9636 8.93215C11.982 8.93177 12.0008 8.9314 12.0191 8.9314C13.6785 8.9314 15.0255 10.2788 15.0255 11.9378C15.0255 11.9565 15.0255 11.9749 15.0251 11.9933L11.9636 8.93215Z" fill="#969494"/>
</g>
<defs>
<clipPath id="clip0_99_167">
<rect width="24" height="24" fill="white"/>
</clipPath>
</defs>
</svg>
