<svg width="24" height="24" viewBox="0 0 24 24" fill="none" xmlns="http://www.w3.org/2000/svg">
<g clip-path="url(#clip0_99_211)">
<path fill-rule="evenodd" clip-rule="evenodd" d="M12.1924 5.22225C16.1576 5.2785 19.4107 8.84363 21.0401 11.9111C21.0401 11.9111 20.4667 13.0845 19.929 13.8356C19.6687 14.199 19.395 14.553 19.1074 14.8954C18.9022 15.1391 18.6904 15.3765 18.4706 15.6071C16.5067 17.6696 13.6864 19.2083 10.7081 18.6109C7.39949 17.9471 4.70062 15.1121 3.07837 12.063C3.07837 12.063 3.65437 10.8885 4.19512 10.1385C4.43737 9.80213 4.69162 9.47475 4.95787 9.15713C5.16187 8.91375 5.37337 8.67638 5.59199 8.44575C7.32712 6.61725 9.55349 5.2095 12.1924 5.22225ZM12.1785 6.72225C9.96974 6.714 8.13299 7.94738 6.67987 9.4785C6.48224 9.68663 6.29174 9.90113 6.10724 10.1209C5.86462 10.4104 5.63287 10.7093 5.41199 11.0156C5.19112 11.3216 4.96462 11.7079 4.78499 12.036C6.21524 14.4394 8.36212 16.6103 11.0032 17.1401C13.4644 17.634 15.7612 16.2773 17.3842 14.5729C17.5826 14.3648 17.7742 14.1499 17.9595 13.9298C18.222 13.6174 18.4717 13.2945 18.7091 12.9626C18.9289 12.6555 19.155 12.2685 19.3342 11.94C17.85 9.45563 15.3105 6.771 12.1785 6.72225Z" fill="#969494"/>
<path fill-rule="evenodd" clip-rule="evenodd" d="M12.0594 8.98047C13.7187 8.98047 15.0661 10.3278 15.0661 11.9868C15.0661 13.6462 13.7187 14.9932 12.0594 14.9932C10.4004 14.9932 9.05298 13.6462 9.05298 11.9868C9.05298 10.3278 10.4004 8.98047 12.0594 8.98047ZM12.0594 10.4838C12.8892 10.4838 13.5627 11.1573 13.5627 11.9868C13.5627 12.8167 12.8892 13.4902 12.0594 13.4902C11.2299 13.4902 10.5564 12.8167 10.5564 11.9868C10.5564 11.1573 11.2299 10.4838 12.0594 10.4838Z" fill="#969494"/>
</g>
<defs>
<clipPath id="clip0_99_211">
<rect width="24" height="24" fill="white"/>
</clipPath>
</defs>
</svg>
