<svg width="32" height="32" viewBox="0 0 32 32" fill="none" xmlns="http://www.w3.org/2000/svg">
<path d="M26.6667 16C26.6667 14.5294 25.4707 13.3334 24 13.3334H22.6667V9.33335C22.6667 5.65735 19.676 2.66669 16 2.66669C12.324 2.66669 9.33337 5.65735 9.33337 9.33335V13.3334H8.00004C6.52937 13.3334 5.33337 14.5294 5.33337 16V26.6667C5.33337 28.1374 6.52937 29.3334 8.00004 29.3334H24C25.4707 29.3334 26.6667 28.1374 26.6667 26.6667V16ZM12 9.33335C12 7.12802 13.7947 5.33335 16 5.33335C18.2054 5.33335 20 7.12802 20 9.33335V13.3334H12V9.33335Z" fill="#00A6A8"/>
</svg>
