<svg width="32" height="32" viewBox="0 0 32 32" fill="none" xmlns="http://www.w3.org/2000/svg">
<path d="M11.0226 19.5732C10.7773 19.5732 10.6119 19.5972 10.5266 19.6212V21.1919C10.6279 21.2159 10.7546 21.2226 10.9293 21.2226C11.5679 21.2226 11.9613 20.8999 11.9613 20.3546C11.9613 19.8666 11.6226 19.5732 11.0226 19.5732ZM15.6719 19.5892C15.4053 19.5892 15.2319 19.6132 15.1293 19.6372V23.1172C15.2319 23.1412 15.3973 23.1412 15.5466 23.1412C16.6359 23.1492 17.3453 22.5492 17.3453 21.2799C17.3533 20.1732 16.7066 19.5892 15.6719 19.5892Z" fill="#00A6A8"/>
<path d="M18.6667 2.66675H8.00004C7.2928 2.66675 6.61452 2.9477 6.11442 3.4478C5.61433 3.94789 5.33337 4.62617 5.33337 5.33341V26.6667C5.33337 27.374 5.61433 28.0523 6.11442 28.5524C6.61452 29.0525 7.2928 29.3334 8.00004 29.3334H24C24.7073 29.3334 25.3856 29.0525 25.8857 28.5524C26.3858 28.0523 26.6667 27.374 26.6667 26.6667V10.6667L18.6667 2.66675ZM12.664 21.5867C12.252 21.9734 11.644 22.1467 10.936 22.1467C10.7988 22.1482 10.6615 22.1402 10.5254 22.1227V24.0241H9.33337V18.7761C9.87131 18.6958 10.4149 18.6593 10.9587 18.6667C11.7014 18.6667 12.2294 18.8081 12.5854 19.0921C12.924 19.3614 13.1534 19.8027 13.1534 20.3227C13.152 20.8454 12.9787 21.2867 12.664 21.5867ZM17.74 23.3934C17.18 23.8587 16.328 24.0801 15.2867 24.0801C14.6627 24.0801 14.2214 24.0401 13.9214 24.0001V18.7774C14.4595 18.6989 15.0029 18.6619 15.5467 18.6667C16.556 18.6667 17.212 18.8481 17.724 19.2347C18.2774 19.6454 18.624 20.3001 18.624 21.2401C18.624 22.2574 18.252 22.9601 17.74 23.3934ZM22.6667 19.6934H20.624V20.9081H22.5334V21.8867H20.624V24.0254H19.416V18.7067H22.6667V19.6934ZM18.6667 12.0001H17.3334V5.33341L24 12.0001H18.6667Z" fill="#00A6A8"/>
</svg>
